<?xml version="1.0" encoding="UTF-8" standalone="no"?>
<!-- Created with Inkscape (http://www.inkscape.org/) -->

<svg
   xmlns:dc="http://purl.org/dc/elements/1.1/"
   xmlns:cc="http://creativecommons.org/ns#"
   xmlns:rdf="http://www.w3.org/1999/02/22-rdf-syntax-ns#"
   xmlns:svg="http://www.w3.org/2000/svg"
   xmlns="http://www.w3.org/2000/svg"
   xmlns:sodipodi="http://sodipodi.sourceforge.net/DTD/sodipodi-0.dtd"
   xmlns:inkscape="http://www.inkscape.org/namespaces/inkscape"
   version="1.1"
   id="svg872"
   width="2048"
   height="512"
   viewBox="0 0 2048 512"
   sodipodi:docname="AnkandoraLogo.svg"
   inkscape:version="0.92.5 (2060ec1f9f, 2020-04-08)"
   inkscape:export-filename="/home/fireclaw/workspace/Ankandora/AnkandoraLight/design/AnkandoraLogo.png"
   inkscape:export-xdpi="96"
   inkscape:export-ydpi="96"
   style="enable-background:new">
  <metadata
     id="metadata878">
    <rdf:RDF>
      <cc:Work
         rdf:about="">
        <dc:format>image/svg+xml</dc:format>
        <dc:type
           rdf:resource="http://purl.org/dc/dcmitype/StillImage" />
        <dc:title></dc:title>
      </cc:Work>
    </rdf:RDF>
  </metadata>
  <defs
     id="defs876">
    <filter
       inkscape:collect="always"
       style="color-interpolation-filters:sRGB"
       id="filter1122">
      <feBlend
         inkscape:collect="always"
         mode="lighten"
         in2="BackgroundImage"
         id="feBlend1124" />
    </filter>
  </defs>
  <sodipodi:namedview
     pagecolor="#ffffff"
     bordercolor="#666666"
     borderopacity="1"
     objecttolerance="10"
     gridtolerance="10"
     guidetolerance="10"
     inkscape:pageopacity="0"
     inkscape:pageshadow="2"
     inkscape:window-width="1920"
     inkscape:window-height="1019"
     id="namedview874"
     showgrid="false"
     inkscape:zoom="0.35355339"
     inkscape:cx="1507.2207"
     inkscape:cy="205.84"
     inkscape:window-x="0"
     inkscape:window-y="29"
     inkscape:window-maximized="1"
     inkscape:current-layer="layer1"
     showguides="true"
     fit-margin-top="0"
     fit-margin-left="0"
     fit-margin-right="0"
     fit-margin-bottom="0"
     inkscape:snap-bbox="false"
     inkscape:bbox-paths="false"
     inkscape:bbox-nodes="false"
     inkscape:snap-bbox-edge-midpoints="false"
     inkscape:snap-bbox-midpoints="false"
     inkscape:object-paths="false"
     inkscape:snap-intersection-paths="false"
     inkscape:snap-smooth-nodes="false"
     inkscape:snap-midpoints="false"
     inkscape:snap-center="false"
     inkscape:snap-text-baseline="false"
     inkscape:snap-page="true"
     inkscape:snap-object-midpoints="false"
     inkscape:snap-others="false"
     inkscape:object-nodes="false"
     inkscape:snap-nodes="false"
     inkscape:snap-global="true" />
  <g
     inkscape:groupmode="layer"
     id="layer4"
     inkscape:label="Author"
     transform="translate(-70.280246,-74.32012)" />
  <g
     inkscape:groupmode="layer"
     id="layer2"
     inkscape:label="nkandora"
     style="display:inline;filter:url(#filter1122)"
     transform="translate(-70.280246,-74.32012)" />
  <g
     inkscape:groupmode="layer"
     id="layer1"
     inkscape:label="A"
     style="display:inline"
     transform="translate(-70.280246,-74.32012)">
    <g
       id="g1188"
       transform="matrix(1.0666712,0,0,1.0666712,248.56932,-39.090637)">
      <text
         transform="matrix(1.4456412,0,0,1.4456412,-31.319774,-261.28841)"
         id="text1108"
         y="574.04865"
         x="839.29797"
         style="font-style:normal;font-variant:normal;font-weight:normal;font-stretch:normal;font-size:40px;line-height:1.25;font-family:'Liberation Serif';-inkscape-font-specification:'Liberation Serif, Normal';font-variant-ligatures:normal;font-variant-caps:normal;font-variant-numeric:normal;font-feature-settings:normal;text-align:start;letter-spacing:0px;word-spacing:0px;writing-mode:lr-tb;text-anchor:start;display:inline;fill:#000000;fill-opacity:1;stroke:none;filter:url(#filter1122);enable-background:new"
         xml:space="preserve"><tspan
           y="574.04865"
           x="839.29797"
           id="tspan1106"
           sodipodi:role="line">by Fireclaw</tspan></text>
      <path
         transform="matrix(1.4456412,0,0,1.4456412,-31.319774,-261.28841)"
         sodipodi:nodetypes="ccccccccccc"
         inkscape:connector-curvature="0"
         id="path930"
         d="m 317.74303,510.35101 v -136.053 l 20.5239,-11.849 v 18.34443 l 55.83413,32.23585 v 101.27902 l -21.32172,-3e-4 v -87.46464 l -33.89819,-19.57113 v 103.07877 z"
         style="display:inline;fill:#000000;fill-opacity:1;stroke:#000000;stroke-width:1px;stroke-linecap:butt;stroke-linejoin:miter;stroke-opacity:1;filter:url(#filter1122);enable-background:new" />
      <path
         transform="matrix(1.4456412,0,0,1.4456412,-31.319774,-261.28841)"
         sodipodi:nodetypes="ccccccccccc"
         inkscape:connector-curvature="0"
         id="path930-6"
         d="M 578.69758,510.35101 V 374.29848 l 20.5239,-11.84948 v 18.34444 l 55.83413,32.23585 V 514.30831 H 633.73389 V 426.84337 L 599.8357,407.27224 v 103.07877 z"
         style="display:inline;fill:#000000;fill-opacity:1;stroke:#000000;stroke-width:1px;stroke-linecap:butt;stroke-linejoin:miter;stroke-opacity:1;filter:url(#filter1122);enable-background:new" />
      <path
         transform="matrix(1.4456412,0,0,1.4456412,-31.319774,-261.28841)"
         sodipodi:nodetypes="cccccccccccc"
         inkscape:connector-curvature="0"
         id="path956"
         d="m 413.37204,510.35101 h 17.21013 l -1.7e-4,-34.51443 53.82402,38.47143 -2e-5,-19.47635 -49.26821,-36.04118 49.26821,-45.40754 v -26.15266 l -53.824,52.81149 V 315.20351 l -18.89723,11.84901 z"
         style="display:inline;fill:#000000;fill-opacity:1;stroke:#000000;stroke-width:1px;stroke-linecap:butt;stroke-linejoin:miter;stroke-opacity:1;filter:url(#filter1122);enable-background:new" />
      <path
         transform="matrix(1.4456412,0,0,1.4456412,-31.319774,-261.28841)"
         sodipodi:nodetypes="cccccccccccc"
         inkscape:connector-curvature="0"
         id="path930-7"
         d="m 556.20117,362.44922 -20.52344,11.84961 v 18.43359 l -62.8125,62.64453 62.41407,53.61524 v 5.3164 h 21.32226 z m -20.52344,53.96484 -0.39843,68.02344 -39.26953,-31.22266 z"
         style="display:inline;fill:#000000;fill-opacity:1;stroke:#000000;stroke-width:1px;stroke-linecap:butt;stroke-linejoin:miter;stroke-opacity:1;filter:url(#filter1122);enable-background:new" />
      <path
         transform="matrix(1.4456412,0,0,1.4456412,-31.319774,-261.28841)"
         sodipodi:nodetypes="cccccccccccc"
         inkscape:connector-curvature="0"
         id="path930-7-3"
         d="m 1002.7578,362.44922 -20.52342,11.84961 v 18.43359 l -62.8125,62.64453 62.41406,53.61524 v 5.3164 h 21.32026 z m -20.52342,53.96484 -0.39844,68.02344 -39.26953,-31.22266 z"
         style="display:inline;fill:#000000;fill-opacity:1;stroke:#000000;stroke-width:1px;stroke-linecap:butt;stroke-linejoin:miter;stroke-opacity:1;filter:url(#filter1122);enable-background:new" />
      <path
         transform="matrix(1.4456412,0,0,1.4456412,-31.319774,-261.28841)"
         sodipodi:nodetypes="cccccccccccc"
         inkscape:connector-curvature="0"
         id="path930-7-3-6"
         d="m 752.1875,315.20312 -20.52344,11.84961 v 65.67969 l -62.8125,62.64453 62.41211,53.61524 v 5.3164 h 21.32227 z m -20.52344,101.21094 -0.40039,68.02344 -39.26758,-31.22266 z"
         style="display:inline;fill:#000000;fill-opacity:1;stroke:#000000;stroke-width:1px;stroke-linecap:butt;stroke-linejoin:miter;stroke-opacity:1;filter:url(#filter1122);enable-background:new" />
      <path
         transform="matrix(1.4456412,0,0,1.4456412,-31.319774,-261.28841)"
         sodipodi:nodetypes="cccccccccc"
         inkscape:connector-curvature="0"
         id="path930-7-3-1"
         d="m 810.1875,392.94922 -46.87695,62.64453 46.47656,53.61719 46.6875,-58.36133 z m 0.43659,25.97676 25.55772,29.97221 -27.70446,34.33611 -23.21983,-27.1812 z"
         style="display:inline;fill:#000000;fill-opacity:1;stroke:#000000;stroke-width:1px;stroke-linecap:butt;stroke-linejoin:miter;stroke-opacity:1;filter:url(#filter1122);enable-background:new" />
      <path
         transform="matrix(1.4456412,0,0,1.4456412,-31.319774,-261.28841)"
         sodipodi:nodetypes="ccccccccccc"
         inkscape:connector-curvature="0"
         id="path930-6-0"
         d="M 866.71313,510.35101 V 374.29848 l 20.5239,-11.84948 v 25.44483 l 39.16366,-22.40627 29.63641,28.42286 -14.22134,10.18751 -19.7576,-17.07848 -34.20691,20.25279 v 103.07877 z"
         style="display:inline;fill:#000000;fill-opacity:1;stroke:#000000;stroke-width:1px;stroke-linecap:butt;stroke-linejoin:miter;stroke-opacity:1;filter:url(#filter1122);enable-background:new" />
      <g
         id="g1162">
        <path
           style="fill:#000000;fill-opacity:1;stroke:#000000;stroke-width:1.44564116px;stroke-linecap:butt;stroke-linejoin:miter;stroke-opacity:1"
           d="m 343.56435,485.58856 h 62.83175 m 0,0 -51.94671,-148.716 -134.73866,-33.61266 33.56599,-116.54919 11.93784,-7.7562 35.88073,137.62499 49.50915,10.35352 -73.34759,-219.56316 -37.47937,20.5411 -129.65877,357.6776 h 57.58566 c 0,1e-5 42.6097,-149.80873 42.6097,-151.25021 0,-1.44147 102.25935,36.4601 102.25935,36.4601 l 30.99093,114.79011"
           id="path882"
           inkscape:connector-curvature="0"
           sodipodi:nodetypes="cccccccccccccscc" />
        <path
           style="fill:#000000;fill-opacity:1;stroke:#000000;stroke-width:1.44564116px;stroke-linecap:butt;stroke-linejoin:miter;stroke-opacity:1"
           d="m 181.605,497.1051 13.81558,23.92961 H 71.528875 L 85.27105,497.1051 Z"
           id="path905"
           inkscape:connector-curvature="0"
           sodipodi:nodetypes="ccccc" />
        <path
           style="fill:#000000;fill-opacity:1;stroke:#000000;stroke-width:1.44564116px;stroke-linecap:butt;stroke-linejoin:miter;stroke-opacity:1"
           d="M 328.83169,497.10519 315.01613,521.0348 H 1457.1081 l -13.7421,-23.92961 z"
           id="path905-3"
           inkscape:connector-curvature="0"
           sodipodi:nodetypes="ccccc" />
      </g>
    </g>
  </g>
</svg>
